<svg width="160" height="160" viewBox="0 0 160 160" fill="none" xmlns="http://www.w3.org/2000/svg">
<g id="&#233;&#159;&#179;&#233;&#162;&#145;-&#230;&#143;&#146;&#231;&#148;&#187;">
<foreignObject x="-4" y="-4" width="168" height="168"><div xmlns="http://www.w3.org/1999/xhtml" style="backdrop-filter:blur(10px);clip-path:url(#bgblur_0_438_30959_clip_path);height:100%;width:100%"></div></foreignObject><circle id="Ellipse 2382" opacity="0.3" data-figma-bg-blur-radius="20" cx="80" cy="80" r="64" fill="url(#paint0_linear_438_30959)" fill-opacity="0.7"/>
<foreignObject x="2" y="2" width="156" height="156"><div xmlns="http://www.w3.org/1999/xhtml" style="backdrop-filter:blur(10px);clip-path:url(#bgblur_1_438_30959_clip_path);height:100%;width:100%"></div></foreignObject><circle id="Ellipse 2381" opacity="0.5" data-figma-bg-blur-radius="20" cx="80" cy="80" r="58" fill="url(#paint1_linear_438_30959)" fill-opacity="0.7"/>
<foreignObject x="-22" y="-22" width="204" height="204"><div xmlns="http://www.w3.org/1999/xhtml" style="backdrop-filter:blur(25px);clip-path:url(#bgblur_2_438_30959_clip_path);height:100%;width:100%"></div></foreignObject><circle id="Ellipse 2374" data-figma-bg-blur-radius="50" cx="80" cy="80" r="52" fill="url(#paint2_linear_438_30959)"/>
<path id="Vector" d="M91.7563 63.1221L77.0081 67.4975C75.2145 67.998 73.7811 69.8031 73.7811 71.5242V86.5782C73.7811 86.5782 72.7109 85.8775 70.3307 86.2101C66.8303 86.6945 64 89.2842 64 92.0064C64 94.7285 66.8303 96.4012 70.3307 95.9168C73.8311 95.4324 76.3847 92.9266 76.3847 90.2013V75.6704C76.3847 74.4659 77.8848 73.9492 77.8848 73.9492L90.9262 69.9904C90.9262 69.9904 92.3764 69.5222 92.3764 70.8106V82.8034C92.3764 82.8034 91.0496 82.0672 88.6693 82.3352C85.1689 82.7518 82.3386 85.2931 82.3386 88.0152C82.3386 90.7373 85.1689 92.4584 88.6693 92.058C92.1697 91.6415 95 89.1002 95 86.378V65.3437C94.98 63.6387 93.5332 62.6377 91.7563 63.1221Z" fill="white"/>
<foreignObject x="-6" y="-6" width="172" height="172"><div xmlns="http://www.w3.org/1999/xhtml" style="backdrop-filter:blur(22.5px);clip-path:url(#bgblur_3_438_30959_clip_path);height:100%;width:100%"></div></foreignObject><circle id="Ellipse 2376" opacity="0.1" data-figma-bg-blur-radius="45" cx="80" cy="80" r="40.775" stroke="white" stroke-width="0.45"/>
<foreignObject x="-1" y="-1" width="162" height="162"><div xmlns="http://www.w3.org/1999/xhtml" style="backdrop-filter:blur(22.5px);clip-path:url(#bgblur_4_438_30959_clip_path);height:100%;width:100%"></div></foreignObject><circle id="Ellipse 2378" opacity="0.1" data-figma-bg-blur-radius="45" cx="80" cy="80" r="35.775" stroke="white" stroke-width="0.45"/>
<foreignObject x="5" y="5" width="150" height="150"><div xmlns="http://www.w3.org/1999/xhtml" style="backdrop-filter:blur(22.5px);clip-path:url(#bgblur_5_438_30959_clip_path);height:100%;width:100%"></div></foreignObject><circle id="Ellipse 2379" opacity="0.1" data-figma-bg-blur-radius="45" cx="80" cy="80" r="29.775" stroke="white" stroke-width="0.45"/>
<foreignObject x="-12" y="-12" width="184" height="184"><div xmlns="http://www.w3.org/1999/xhtml" style="backdrop-filter:blur(22.5px);clip-path:url(#bgblur_6_438_30959_clip_path);height:100%;width:100%"></div></foreignObject><circle id="Ellipse 2377" opacity="0.1" data-figma-bg-blur-radius="45" cx="80" cy="80" r="46.775" stroke="white" stroke-width="0.45"/>
<foreignObject x="76" y="76" width="88" height="88"><div xmlns="http://www.w3.org/1999/xhtml" style="backdrop-filter:blur(10px);clip-path:url(#bgblur_7_438_30959_clip_path);height:100%;width:100%"></div></foreignObject><circle id="Ellipse 2380" data-figma-bg-blur-radius="20" cx="120" cy="120" r="23.5" fill="url(#paint3_linear_438_30959)" fill-opacity="0.7" stroke="#E6F4FF"/>
<g id="Group 1321320304">
<path id="Vector 1525" d="M113.75 124.848L113.75 115.841" stroke="#1677FF" stroke-width="3.375" stroke-linecap="round"/>
<path id="Vector 1527" d="M127.25 124.848L127.25 115.841" stroke="#1677FF" stroke-width="3.375" stroke-linecap="round"/>
<path id="Vector 1528" d="M134 122.598L134 118.098" stroke="#1677FF" stroke-width="3.375" stroke-linecap="round"/>
<path id="Vector 1529" d="M107 122.602L107 118.102" stroke="#1677FF" stroke-width="3.375" stroke-linecap="round"/>
<path id="Vector 1526" d="M120.5 129.34L120.5 111.002" stroke="#1677FF" stroke-width="3.375" stroke-linecap="round"/>
</g>
</g>
<defs>
<clipPath id="bgblur_0_438_30959_clip_path" transform="translate(4 4)"><circle cx="80" cy="80" r="64"/>
</clipPath><clipPath id="bgblur_1_438_30959_clip_path" transform="translate(-2 -2)"><circle cx="80" cy="80" r="58"/>
</clipPath><clipPath id="bgblur_2_438_30959_clip_path" transform="translate(22 22)"><circle cx="80" cy="80" r="52"/>
</clipPath><clipPath id="bgblur_3_438_30959_clip_path" transform="translate(6 6)"><circle cx="80" cy="80" r="40.775"/>
</clipPath><clipPath id="bgblur_4_438_30959_clip_path" transform="translate(1 1)"><circle cx="80" cy="80" r="35.775"/>
</clipPath><clipPath id="bgblur_5_438_30959_clip_path" transform="translate(-5 -5)"><circle cx="80" cy="80" r="29.775"/>
</clipPath><clipPath id="bgblur_6_438_30959_clip_path" transform="translate(12 12)"><circle cx="80" cy="80" r="46.775"/>
</clipPath><clipPath id="bgblur_7_438_30959_clip_path" transform="translate(-76 -76)"><circle cx="120" cy="120" r="23.5"/>
</clipPath><linearGradient id="paint0_linear_438_30959" x1="80" y1="16" x2="80" y2="144" gradientUnits="userSpaceOnUse">
<stop stop-color="#E6F4FF"/>
<stop offset="1" stop-color="#BAE0FF"/>
</linearGradient>
<linearGradient id="paint1_linear_438_30959" x1="80" y1="22" x2="80" y2="138" gradientUnits="userSpaceOnUse">
<stop stop-color="#E6F4FF"/>
<stop offset="1" stop-color="#BAE0FF"/>
</linearGradient>
<linearGradient id="paint2_linear_438_30959" x1="80" y1="28" x2="80" y2="132" gradientUnits="userSpaceOnUse">
<stop stop-color="#1677FF"/>
<stop offset="1" stop-color="#2F54EB"/>
</linearGradient>
<linearGradient id="paint3_linear_438_30959" x1="120" y1="96" x2="120" y2="144" gradientUnits="userSpaceOnUse">
<stop stop-color="#E6F4FF"/>
<stop offset="1" stop-color="#BAE0FF"/>
</linearGradient>
</defs>
</svg>
