<svg width="160" height="160" viewBox="0 0 160 160" fill="none" xmlns="http://www.w3.org/2000/svg">
<g id="&#229;&#133;&#182;&#228;&#187;&#150;-&#230;&#143;&#146;&#231;&#148;&#187;">
<g id="Group 1000004228">
<g id="pic">
<foreignObject x="-26.3773" y="-21.0844" width="191.942" height="202.329"><div xmlns="http://www.w3.org/1999/xhtml" style="backdrop-filter:blur(24.62px);clip-path:url(#bgblur_0_442_30407_clip_path);height:100%;width:100%"></div></foreignObject><path id="Exclude" data-figma-bg-blur-radius="49.2445" d="M86.752 28.1602C87.8824 28.1603 88.9607 28.6356 89.7236 29.4697L115.266 57.4004C115.945 58.1428 116.321 59.1131 116.321 60.1191V123.898C116.321 128.372 112.695 131.999 108.222 131.999H30.9668C26.4933 131.999 22.8672 128.372 22.8672 123.898V36.2607C22.8672 31.7873 26.4933 28.1602 30.9668 28.1602H86.752Z" fill="url(#paint0_linear_442_30407)"/>
<rect id="Rectangle 279335646" x="34.1172" y="41.0625" width="40.67" height="28.5555" rx="7.2" fill="white"/>
<path id="Vector 1527" d="M36.3281 111.73H63.2492" stroke="white" stroke-width="4.55625" stroke-linecap="round"/>
<path id="Vector 1526" d="M35.8516 84.3281L103.346 84.3281" stroke="white" stroke-width="4.55625" stroke-linecap="round"/>
<path id="Vector 1528" d="M35.8516 98.1719L103.346 98.1719" stroke="white" stroke-width="4.55625" stroke-linecap="round"/>
<foreignObject x="36.8414" y="-21.1625" width="128.716" height="131.95"><div xmlns="http://www.w3.org/1999/xhtml" style="backdrop-filter:blur(24.62px);clip-path:url(#bgblur_1_442_30407_clip_path);height:100%;width:100%"></div></foreignObject><path id="Intersect" data-figma-bg-blur-radius="49.2445" d="M86.7393 28.082C87.8699 28.082 88.9489 28.5573 89.7119 29.3916L115.254 57.3223C115.933 58.0647 116.31 59.035 116.31 60.041C116.31 60.8711 115.637 61.5439 114.807 61.5439H92.3857C88.9066 61.5437 86.0861 58.7233 86.0859 55.2441V28.7354C86.0859 28.3745 86.3784 28.082 86.7393 28.082Z" fill="url(#paint1_linear_442_30407)"/>
</g>
</g>
<g id="Group 1000004229">
<g id="pic_2">
<foreignObject x="63.1135" y="49.1135" width="98.7729" height="104.882"><div xmlns="http://www.w3.org/1999/xhtml" style="backdrop-filter:blur(10.94px);clip-path:url(#bgblur_2_442_30407_clip_path);height:100%;width:100%"></div></foreignObject><g id="Exclude_2" data-figma-bg-blur-radius="21.8865">
<mask id="path-7-inside-1_442_30407" fill="white">
<path d="M119.785 71C122.243 71.0001 124.587 72.0332 126.245 73.8467L137.706 86.3789C139.182 87.9926 140 90.1005 140 92.2871V123.356C140 128.191 136.081 132.111 131.246 132.111H93.7549C88.9199 132.111 85 128.191 85 123.356V79.7549C85 74.9199 88.9199 71 93.7549 71H119.785Z"/>
</mask>
<path d="M119.785 71C122.243 71.0001 124.587 72.0332 126.245 73.8467L137.706 86.3789C139.182 87.9926 140 90.1005 140 92.2871V123.356C140 128.191 136.081 132.111 131.246 132.111H93.7549C88.9199 132.111 85 128.191 85 123.356V79.7549C85 74.9199 88.9199 71 93.7549 71H119.785Z" fill="url(#paint2_linear_442_30407)" fill-opacity="0.7"/>
<path d="M119.785 71L119.785 69.9057H119.785V71ZM126.245 73.8467L125.438 74.5852L125.438 74.5852L126.245 73.8467ZM137.706 86.3789L138.514 85.6404L138.514 85.6404L137.706 86.3789ZM140 92.2871H141.094V92.2871L140 92.2871ZM131.246 132.111V133.206H131.246L131.246 132.111ZM119.785 71L119.785 72.0943C121.935 72.0944 123.986 72.9984 125.438 74.5852L126.245 73.8467L127.053 73.1082C125.187 71.0681 122.55 69.9058 119.785 69.9057L119.785 71ZM126.245 73.8467L125.438 74.5852L136.899 87.1174L137.706 86.3789L138.514 85.6404L127.053 73.1082L126.245 73.8467ZM137.706 86.3789L136.898 87.1174C138.19 88.5293 138.906 90.3737 138.906 92.2871L140 92.2871L141.094 92.2871C141.094 89.8272 140.174 87.4558 138.514 85.6404L137.706 86.3789ZM140 92.2871H138.906V123.356H140H141.094V92.2871H140ZM140 123.356H138.906C138.906 127.587 135.476 131.017 131.246 131.017L131.246 132.111L131.246 133.206C136.685 133.205 141.094 128.796 141.094 123.356H140ZM131.246 132.111V131.017H93.7549V132.111V133.206H131.246V132.111ZM93.7549 132.111V131.017C89.5242 131.017 86.0943 127.587 86.0943 123.356H85H83.9057C83.9057 128.796 88.3155 133.206 93.7549 133.206V132.111ZM85 123.356H86.0943V79.7549H85H83.9057V123.356H85ZM85 79.7549H86.0943C86.0943 75.5242 89.5242 72.0943 93.7549 72.0943V71V69.9057C88.3155 69.9057 83.9057 74.3155 83.9057 79.7549H85ZM93.7549 71V72.0943H119.785V71V69.9057H93.7549V71Z" fill="#E6F4FF" mask="url(#path-7-inside-1_442_30407)"/>
</g>
<foreignObject x="100.309" y="49.9143" width="61.562" height="62.6206"><div xmlns="http://www.w3.org/1999/xhtml" style="backdrop-filter:blur(10.94px);clip-path:url(#bgblur_3_442_30407_clip_path);height:100%;width:100%"></div></foreignObject><g id="Intersect_2" data-figma-bg-blur-radius="21.8865">
<mask id="path-9-inside-2_442_30407" fill="white">
<path d="M122.195 73.9714C122.195 72.3582 123.736 71.076 124.824 72.2665L138.93 87.6903C139.609 88.4326 139.985 89.4022 139.985 90.4081C139.985 90.5402 139.878 90.6474 139.746 90.6474H128.122C124.849 90.6474 122.196 87.9942 122.195 84.7216V73.9714Z"/>
</mask>
<path d="M122.195 73.9714C122.195 72.3582 123.736 71.076 124.824 72.2665L138.93 87.6903C139.609 88.4326 139.985 89.4022 139.985 90.4081C139.985 90.5402 139.878 90.6474 139.746 90.6474H128.122C124.849 90.6474 122.196 87.9942 122.195 84.7216V73.9714Z" fill="url(#paint3_linear_442_30407)" fill-opacity="0.7"/>
<path d="M124.824 72.2665L124.017 73.005L124.017 73.005L124.824 72.2665ZM138.93 87.6903L139.737 86.9518L139.737 86.9518L138.93 87.6903ZM139.985 90.4081H141.08V90.408L139.985 90.4081ZM122.195 84.7216H121.101V84.7217L122.195 84.7216ZM124.824 72.2665L124.017 73.005L138.122 88.4289L138.93 87.6903L139.737 86.9518L125.632 71.528L124.824 72.2665ZM138.93 87.6903L138.122 88.4288C138.617 88.9696 138.891 89.6758 138.891 90.4082L139.985 90.4081L141.08 90.408C141.08 89.1287 140.6 87.8957 139.737 86.9518L138.93 87.6903ZM139.746 90.6474V89.553H128.122V90.6474V91.7417H139.746V90.6474ZM128.122 90.6474V89.553C125.454 89.553 123.29 87.3897 123.29 84.7215L122.195 84.7216L121.101 84.7217C121.101 88.5988 124.245 91.7417 128.122 91.7417V90.6474ZM122.195 84.7216H123.29V73.9714H122.195H121.101V84.7216H122.195ZM139.985 90.4081H138.891C138.891 89.9359 139.274 89.553 139.746 89.553V90.6474V91.7417C140.483 91.7417 141.08 91.1446 141.08 90.4081H139.985ZM124.824 72.2665L125.632 71.528C125.199 71.0551 124.65 70.7579 124.035 70.7125C123.434 70.668 122.89 70.8726 122.464 71.178C121.633 71.7736 121.101 72.8417 121.101 73.9714H122.195H123.29C123.29 73.488 123.528 73.1083 123.739 72.9571C123.786 72.9237 123.822 72.9078 123.844 72.9008C123.855 72.8974 123.862 72.896 123.867 72.8955C123.871 72.895 123.873 72.8951 123.873 72.8951C123.874 72.8952 123.875 72.8953 123.877 72.896C123.88 72.8966 123.886 72.8986 123.896 72.9037C123.915 72.9135 123.957 72.94 124.017 73.005L124.824 72.2665Z" fill="#E6F4FF" mask="url(#path-9-inside-2_442_30407)"/>
</g>
</g>
</g>
<g id="Frame">
<path id="Vector" d="M114.579 102.179L108.399 108.359C107.856 108.915 107.553 109.664 107.558 110.442C107.562 111.221 107.873 111.966 108.424 112.517C108.974 113.067 109.719 113.378 110.497 113.383C111.276 113.387 112.025 113.085 112.581 112.541L119.611 105.511C121.531 103.592 121.531 100.48 119.611 98.5611C117.692 96.6411 114.58 96.6411 112.661 98.5611L105.352 105.868C102.716 108.504 102.716 112.778 105.352 115.414C107.988 118.05 112.262 118.05 114.898 115.414L120.205 110.107C120.388 109.918 120.488 109.665 120.486 109.403C120.484 109.141 120.379 108.89 120.193 108.705C120.008 108.519 119.757 108.414 119.495 108.412C119.233 108.41 118.98 108.51 118.791 108.693L113.484 114.001C112.593 114.888 111.385 115.386 110.127 115.385C108.869 115.384 107.663 114.883 106.773 113.994C105.884 113.104 105.384 111.898 105.382 110.64C105.381 109.382 105.879 108.175 106.766 107.283L114.075 99.9746C114.345 99.6997 114.666 99.481 115.021 99.3311C115.376 99.1812 115.757 99.1031 116.142 99.1012C116.527 99.0994 116.909 99.1739 117.265 99.3204C117.621 99.4669 117.944 99.6826 118.217 99.9549C118.489 100.227 118.705 100.551 118.851 100.907C118.998 101.263 119.072 101.645 119.071 102.03C119.069 102.415 118.991 102.796 118.841 103.151C118.691 103.505 118.472 103.827 118.197 104.097L111.167 111.127C110.987 111.302 110.745 111.4 110.493 111.398C110.241 111.397 110 111.296 109.822 111.118C109.644 110.94 109.543 110.699 109.542 110.447C109.54 110.195 109.638 109.953 109.813 109.773L115.993 103.593C116.181 103.405 116.287 103.151 116.287 102.885C116.287 102.62 116.182 102.366 115.994 102.178C115.806 101.99 115.552 101.885 115.287 101.885C115.022 101.885 114.767 101.99 114.579 102.178V102.179Z" fill="#1677FF" stroke="#1677FF" stroke-width="0.5"/>
</g>
</g>
<defs>
<clipPath id="bgblur_0_442_30407_clip_path" transform="translate(26.3773 21.0844)"><path d="M86.752 28.1602C87.8824 28.1603 88.9607 28.6356 89.7236 29.4697L115.266 57.4004C115.945 58.1428 116.321 59.1131 116.321 60.1191V123.898C116.321 128.372 112.695 131.999 108.222 131.999H30.9668C26.4933 131.999 22.8672 128.372 22.8672 123.898V36.2607C22.8672 31.7873 26.4933 28.1602 30.9668 28.1602H86.752Z"/>
</clipPath><clipPath id="bgblur_1_442_30407_clip_path" transform="translate(-36.8414 21.1625)"><path d="M86.7393 28.082C87.8699 28.082 88.9489 28.5573 89.7119 29.3916L115.254 57.3223C115.933 58.0647 116.31 59.035 116.31 60.041C116.31 60.8711 115.637 61.5439 114.807 61.5439H92.3857C88.9066 61.5437 86.0861 58.7233 86.0859 55.2441V28.7354C86.0859 28.3745 86.3784 28.082 86.7393 28.082Z"/>
</clipPath><clipPath id="bgblur_2_442_30407_clip_path" transform="translate(-63.1135 -49.1135)"><path d="M119.785 71C122.243 71.0001 124.587 72.0332 126.245 73.8467L137.706 86.3789C139.182 87.9926 140 90.1005 140 92.2871V123.356C140 128.191 136.081 132.111 131.246 132.111H93.7549C88.9199 132.111 85 128.191 85 123.356V79.7549C85 74.9199 88.9199 71 93.7549 71H119.785Z"/>
</clipPath><clipPath id="bgblur_3_442_30407_clip_path" transform="translate(-100.309 -49.9143)"><path d="M122.195 73.9714C122.195 72.3582 123.736 71.076 124.824 72.2665L138.93 87.6903C139.609 88.4326 139.985 89.4022 139.985 90.4081C139.985 90.5402 139.878 90.6474 139.746 90.6474H128.122C124.849 90.6474 122.196 87.9942 122.195 84.7216V73.9714Z"/>
</clipPath><linearGradient id="paint0_linear_442_30407" x1="69.5942" y1="28.1602" x2="69.5942" y2="131.999" gradientUnits="userSpaceOnUse">
<stop stop-color="#1677FF"/>
<stop offset="1" stop-color="#2F54EB"/>
</linearGradient>
<linearGradient id="paint1_linear_442_30407" x1="101.198" y1="28.082" x2="101.198" y2="61.5439" gradientUnits="userSpaceOnUse">
<stop stop-color="#1677FF"/>
<stop offset="1" stop-color="#2F54EB"/>
</linearGradient>
<linearGradient id="paint2_linear_442_30407" x1="112.5" y1="71" x2="112.5" y2="132.111" gradientUnits="userSpaceOnUse">
<stop stop-color="#E6F4FF"/>
<stop offset="1" stop-color="#BAE0FF"/>
</linearGradient>
<linearGradient id="paint3_linear_442_30407" x1="131.09" y1="71.8008" x2="131.09" y2="90.6474" gradientUnits="userSpaceOnUse">
<stop stop-color="#E6F4FF"/>
<stop offset="1" stop-color="#BAE0FF"/>
</linearGradient>
</defs>
</svg>
