<svg width="28" height="28" viewBox="0 0 28 28" fill="none" xmlns="http://www.w3.org/2000/svg">
<g id="&#229;&#190;&#133;&#229;&#143;&#145;&#233;&#128;&#129;-icon" clip-path="url(#clip0_10128_42360)">
<g id="&#229;&#186;&#149;&#230;&#160;&#143;_&#228;&#188;&#160;&#229;&#155;&#190;">
<rect width="28" height="28" rx="8" fill="url(#paint0_linear_10128_42360)"/>
</g>
<path id="&#231;&#174;&#173;&#229;&#164;&#180;-icon" fill-rule="evenodd" clip-rule="evenodd" d="M9.43476 13.0131C9.45071 13.1712 9.56238 13.2978 9.71392 13.3373L9.97713 13.4085L12.7687 13.788C13.1436 13.8908 13.1436 14.4128 12.7687 14.5156L9.96118 14.8951L9.69797 14.9663C9.54642 15.0058 9.43476 15.1403 9.41881 15.2984L9.39488 15.5673L9.06786 19.1099C9.01203 19.7584 9.70594 20.2091 10.2802 19.9007L20.5693 14.7686C21.1436 14.4602 21.1436 13.6457 20.5693 13.3373L10.2244 8.1024C9.64214 7.78609 8.94025 8.24474 9.00405 8.90108L9.40286 12.7521L9.42678 13.021L9.43476 13.0131Z" fill="white"/>
</g>
<defs>
<linearGradient id="paint0_linear_10128_42360" x1="0" y1="0" x2="28" y2="28" gradientUnits="userSpaceOnUse">
<stop stop-color="#1677FF"/>
<stop offset="0.5" stop-color="#2F54EB"/>
<stop offset="1" stop-color="#722ED1"/>
</linearGradient>
<clipPath id="clip0_10128_42360">
<rect width="28" height="28" fill="white"/>
</clipPath>
</defs>
</svg>
