<svg width="16" height="16" viewBox="0 0 16 16" fill="none" xmlns="http://www.w3.org/2000/svg">
  <defs>
    <linearGradient id="blueGradient" x1="0%" y1="0%" x2="100%" y2="0%">
      <stop offset="0%" stop-color="rgba(22,119,255,0.6)"/>
      <stop offset="100%" stop-color="#1677FF"/>
    </linearGradient>
  </defs>
  <g id="icon">
    <path
      fill-rule="evenodd"
      clip-rule="evenodd"
      d="M13.6561 2.34275C14.9811 3.66742 14.5901 5.77742 13.1561 7.99942C14.5901 10.2211 14.9811 12.3314 13.6561 13.6561C12.3314 14.9811 10.2214 14.5901 7.99942 13.1561C5.77775 14.5901 3.66742 14.9811 2.34275 13.6561C1.01742 12.3314 1.40842 10.2214 2.84275 7.99942C1.40875 5.77742 1.01775 3.66742 2.34275 2.34275C3.66708 1.01742 5.77742 1.40842 7.99942 2.84275C10.2214 1.40875 12.3314 1.01775 13.6561 2.34275ZM12.3161 9.16742L12.2944 9.19375C11.8366 9.76536 11.3471 10.3108 10.8281 10.8274C10.3036 11.3545 9.74934 11.851 9.16808 12.3148C10.7591 13.2354 12.0508 13.3761 12.7138 12.7131C13.3771 12.0501 13.2361 10.7584 12.3161 9.16742ZM3.65708 9.21375L3.68375 9.16708C4.14755 9.74846 4.64425 10.3028 5.17142 10.8274C5.69602 11.3545 6.25025 11.8512 6.83142 12.3151C5.24042 13.2354 3.94875 13.3761 3.28575 12.7131C2.62908 12.0564 2.76075 10.7838 3.65708 9.21375ZM7.99942 4.46142L7.98608 4.47142C7.38442 4.92408 6.75542 5.47142 6.11375 6.11342C5.46708 6.76008 4.91642 7.39342 4.46208 7.99875C4.91608 8.60475 5.46708 9.23808 6.11375 9.88475C6.76042 10.5314 7.39375 11.0821 7.99908 11.5364C8.60508 11.0824 9.23842 10.5314 9.88508 9.88475C10.5318 9.23808 11.0828 8.60475 11.5371 7.99908C11.0824 7.39342 10.5314 6.76008 9.88508 6.11342C9.23842 5.46675 8.60508 4.91575 7.99942 4.46142ZM9.33275 7.99942C9.33275 7.6458 9.19227 7.30666 8.94223 7.05661C8.69218 6.80656 8.35304 6.66608 7.99942 6.66608C7.6458 6.66608 7.30666 6.80656 7.05661 7.05661C6.80656 7.30666 6.66608 7.6458 6.66608 7.99942C6.66608 8.35304 6.80656 8.69218 7.05661 8.94223C7.30666 9.19227 7.6458 9.33275 7.99942 9.33275C8.35304 9.33275 8.69218 9.19227 8.94223 8.94223C9.19227 8.69218 9.33275 8.35304 9.33275 7.99942ZM3.28542 3.28542C2.62208 3.94842 2.76308 5.24008 3.68342 6.83108C4.14734 6.24992 4.64404 5.69569 5.17108 5.17108C5.68771 4.65196 6.23313 4.16229 6.80475 3.70442L6.83142 3.68342C5.23975 2.76275 3.94842 2.62242 3.28542 3.28542ZM9.16742 3.68342L9.21408 3.65675C10.7841 2.76008 12.0568 2.62875 12.7134 3.28542C13.3768 3.94842 13.2358 5.24008 12.3154 6.83142C11.8516 6.25004 11.3549 5.69569 10.8278 5.17108C10.3031 4.64393 9.74879 4.14723 9.16742 3.68342Z"
      fill="url(#blueGradient)"
    />
  </g>
</svg>