<svg xmlns="http://www.w3.org/2000/svg" width="16" height="16" viewBox="0 0 16 16" fill="none">
  <g clip-path="url(#clip0_1_4286)">
    <path d="M7.9999 2.0999C4.74142 2.0999 2.0999 4.74142 2.0999 7.9999C2.0999 11.2584 4.74142 13.8999 7.9999 13.8999C11.2584 13.8999 13.8999 11.2584 13.8999 7.9999C13.8999 4.74142 11.2584 2.0999 7.9999 2.0999ZM0.899902 7.9999C0.899902 4.07868 4.07868 0.899902 7.9999 0.899902C11.9211 0.899902 15.0999 4.07868 15.0999 7.9999C15.0999 11.9211 11.9211 15.0999 7.9999 15.0999C4.07868 15.0999 0.899902 11.9211 0.899902 7.9999ZM6.73667 5.54917C6.48154 5.80429 6.3499 6.14832 6.3499 6.4999H5.1499C5.1499 5.85149 5.39326 5.19552 5.88814 4.70064C6.38866 4.20012 7.11015 3.8999 7.9999 3.8999C8.88965 3.8999 9.61115 4.20012 10.1117 4.70064C10.6065 5.19552 10.8499 5.85149 10.8499 6.4999C10.8499 7.08563 10.6548 7.53465 10.3553 7.88663C10.0783 8.21229 9.72176 8.43951 9.45068 8.61227L9.44738 8.61438C8.83745 9.00311 8.5999 9.18184 8.5999 9.61794V9.9999H7.3999V9.61794C7.3999 8.48927 8.20917 7.97763 8.73063 7.64794C8.75524 7.63238 8.77921 7.61723 8.80242 7.60243C9.09344 7.41695 9.29766 7.27794 9.44135 7.10905C9.56377 6.96515 9.6499 6.78918 9.6499 6.4999C9.6499 6.14832 9.51826 5.80429 9.26314 5.54917C9.01366 5.29969 8.61015 5.0999 7.9999 5.0999C7.38965 5.0999 6.98614 5.29969 6.73667 5.54917ZM7.3999 11.9999V10.9999H8.5999V11.9999H7.3999Z" fill="#fe7d7d"/>
  </g>
  <defs>
    <clipPath id="clip0_1_4286">
      <rect width="16" height="16" fill="white"/>
    </clipPath>
  </defs>
</svg>
